<?xml version="1.0" standalone="no"?>
<!DOCTYPE svg PUBLIC "-//W3C//DTD SVG 20010904//EN"
 "http://www.w3.org/TR/2001/REC-SVG-20010904/DTD/svg10.dtd">
<svg version="1.0" xmlns="http://www.w3.org/2000/svg"
 width="500.000000pt" height="500.000000pt" viewBox="0 0 500.000000 500.000000"
 preserveAspectRatio="xMidYMid meet">

<g transform="translate(0.000000,500.000000) scale(0.100000,-0.100000)"
fill="#000000" stroke="none">
<path d="M2199 4371 c-25 -26 -29 -37 -29 -86 0 -65 19 -116 51 -139 36 -25
57 -21 32 7 -52 56 -58 207 -9 239 7 5 7 8 -2 8 -8 0 -27 -13 -43 -29z"/>
<path d="M2297 4378 c53 -60 59 -207 9 -240 -8 -6 -7 -8 1 -8 7 0 24 10 39 23
51 44 43 183 -13 227 -14 11 -33 20 -41 20 -12 0 -12 -4 5 -22z"/>
<path d="M2675 4373 c-24 -6 -55 -32 -55 -47 0 -6 5 -5 12 2 18 18 67 14 117
-9 43 -19 60 -15 61 14 0 18 -101 48 -135 40z"/>
<path d="M1985 4313 c60 -39 111 -172 85 -224 -10 -22 -9 -21 14 4 32 34 34
93 7 152 -24 53 -50 75 -97 81 l-39 6 30 -19z"/>
<path d="M1911 4296 c-33 -35 -37 -84 -11 -145 27 -62 64 -91 117 -90 l38 0
-35 12 c-63 22 -121 169 -90 228 14 25 8 24 -19 -5z"/>
<path d="M2615 4290 c11 -38 25 -50 85 -79 38 -18 56 -33 58 -48 6 -42 -74
-39 -137 6 -25 18 -30 19 -41 6 -16 -19 2 -43 47 -62 74 -30 143 1 145 65 1
41 -22 67 -81 88 -25 10 -54 25 -65 33 -18 15 -18 15 -11 -9z"/>
<path d="M2896 4294 c-8 -22 -9 -22 19 -16 59 11 59 -1 -6 -124 -50 -93 -59
-118 -48 -125 8 -5 16 -9 20 -9 3 0 33 54 68 120 l62 119 -50 26 c-59 30 -57
29 -65 9z"/>
<path d="M3036 4218 c22 -43 21 -43 33 -19 10 18 7 22 -19 36 l-31 16 17 -33z"/>
<path d="M1680 4171 c-62 -47 -78 -70 -55 -78 6 -2 16 10 22 27 6 16 15 30 20
30 4 -1 42 -48 83 -105 41 -58 78 -105 81 -105 4 0 12 6 18 13 8 11 -6 37 -65
115 -41 56 -72 106 -69 112 3 5 20 10 36 10 20 0 29 4 27 13 -9 24 -34 16 -98
-32z"/>
<path d="M3087 4072 c-84 -95 -94 -125 -55 -161 55 -52 138 -30 226 61 48 50
51 56 36 68 -14 13 -25 5 -93 -68 -42 -46 -79 -83 -83 -82 -17 0 -88 74 -88
90 0 22 64 79 125 111 25 13 45 27 45 30 0 3 -8 13 -18 22 -16 15 -22 10 -95
-71z"/>
<path d="M1466 3969 c-55 -66 -57 -71 -40 -84 17 -12 19 -11 24 23 3 23 10 36
18 34 8 -1 55 -38 106 -82 70 -60 96 -76 104 -68 7 7 12 15 12 19 0 3 -45 44
-100 90 -89 75 -99 85 -83 96 9 7 25 13 36 13 10 0 17 5 15 13 -10 28 -36 12
-92 -54z"/>
<path d="M3276 3869 c-55 -38 -103 -72 -107 -76 -5 -5 1 -19 12 -33 12 -14 18
-20 15 -13 -9 16 200 157 217 146 7 -4 5 3 -4 17 -9 13 -20 25 -25 26 -5 1
-54 -29 -108 -67z"/>
<path d="M3428 3844 c4 -31 -1 -40 -42 -79 -58 -56 -112 -73 -158 -49 l-33 17
19 -21 c43 -49 115 -48 181 2 41 31 59 75 51 120 -9 47 -23 54 -18 10z"/>
<path d="M2510 3779 c-20 -9 -36 -25 -36 -35 -1 -11 -2 -25 -3 -32 -1 -9 -6
-10 -20 -3 -15 8 -20 7 -24 -8 -6 -25 1 -35 41 -55 38 -20 41 -40 7 -62 -14
-9 -23 -19 -20 -23 2 -4 -2 -8 -11 -8 -9 0 -12 7 -9 17 4 13 -2 19 -25 24 -25
4 -30 10 -26 24 5 14 -2 20 -26 28 -18 5 -32 15 -30 22 1 7 -7 22 -18 34 -11
12 -20 29 -20 37 0 13 -2 14 -9 2 -7 -12 -12 -11 -30 1 -11 8 -18 17 -15 20 6
6 -14 8 -86 7 -28 0 -48 -5 -53 -15 -6 -11 -12 -12 -30 -2 -20 10 -21 10 -8
-5 7 -10 9 -17 3 -17 -5 0 -8 -10 -5 -21 5 -18 3 -20 -14 -15 -13 4 -25 0 -34
-11 -12 -15 -12 -16 3 -10 24 9 33 -11 14 -32 -36 -40 -12 -70 52 -66 31 3 42
0 42 -11 0 -8 5 -14 10 -14 6 0 10 -7 10 -15 0 -8 -5 -15 -11 -15 -5 0 -7 -4
-4 -10 3 -5 2 -10 -4 -10 -7 0 -7 -8 0 -26 5 -15 7 -29 4 -32 -3 -3 -5 -2 -5
3 0 4 -6 3 -12 -3 -11 -9 -68 -16 -105 -13 -7 1 -13 10 -13 22 0 15 -5 19 -15
15 -8 -3 -14 0 -12 7 1 7 -4 11 -10 9 -7 -1 -13 4 -13 12 0 24 -47 28 -86 7
-35 -19 -64 -19 -64 1 0 5 -5 6 -10 3 -6 -4 -8 -11 -5 -16 4 -5 -1 -9 -10 -9
-9 0 -13 -4 -10 -10 3 -5 1 -10 -4 -10 -6 0 -11 6 -11 13 0 9 -2 9 -8 -1 -5
-7 -16 -10 -24 -7 -9 4 -19 2 -23 -4 -3 -6 0 -11 7 -11 9 0 9 -3 -2 -10 -13
-8 -12 -11 4 -23 13 -9 17 -21 14 -35 -7 -26 13 -44 47 -44 28 0 58 -28 38
-35 -16 -6 -17 -43 -2 -43 8 0 8 -4 0 -14 -14 -16 1 -31 41 -41 15 -4 29 -13
32 -21 6 -16 36 -19 36 -4 0 6 7 10 15 10 9 0 15 9 15 21 0 19 1 19 16 5 8 -9
18 -16 22 -16 4 0 15 -14 24 -30 l17 -30 -29 0 c-17 0 -29 -3 -29 -7 3 -21 -2
-32 -15 -27 -22 8 -30 -15 -12 -35 16 -18 13 -51 -5 -51 -11 0 -32 -50 -24
-58 3 -3 28 -7 55 -9 44 -2 50 0 50 17 0 11 6 20 14 20 15 0 30 -27 27 -47 -1
-7 3 -13 9 -13 17 0 11 -16 -16 -44 -32 -31 -38 -32 -63 -5 -12 13 -24 18 -32
13 -9 -5 -10 -2 -6 10 4 10 3 15 -3 11 -6 -3 -10 -2 -10 3 0 5 -11 7 -25 4
-14 -2 -25 -11 -25 -21 0 -10 -3 -12 -8 -5 -14 21 -61 9 -96 -25 -39 -38 -44
-51 -21 -51 23 0 30 -28 14 -57 -12 -22 -11 -27 6 -39 27 -20 38 -17 25 5 -6
12 -6 22 -1 25 5 4 12 0 15 -6 3 -10 8 -9 18 2 7 9 20 15 28 15 8 -1 21 4 29
9 12 9 12 7 3 -11 -15 -28 -15 -36 0 -27 7 4 8 3 4 -4 -4 -6 -13 -9 -21 -5 -8
3 -15 0 -15 -6 0 -6 9 -11 20 -11 11 0 20 -5 20 -12 0 -6 9 -3 20 7 19 18 20
17 20 -3 0 -12 5 -22 12 -22 23 0 -7 -16 -80 -44 -71 -27 -102 -48 -102 -67 0
-5 10 -3 23 5 19 13 117 47 141 50 8 1 13 -38 6 -46 -1 -2 -3 -13 -5 -24 -4
-18 0 -21 25 -18 17 2 30 -1 30 -6 0 -6 7 -10 16 -10 10 0 14 -5 10 -15 -7
-19 23 -33 34 -15 4 7 16 9 28 6 18 -6 24 1 43 41 26 58 23 55 43 47 22 -8 21
-28 -1 -22 -14 4 -18 -1 -17 -26 0 -17 -4 -36 -8 -42 -14 -19 23 -26 42 -9 21
19 35 5 25 -25 -5 -15 -2 -20 14 -20 11 0 23 5 27 11 4 8 9 7 14 -2 6 -9 12
-9 24 4 9 8 16 20 16 26 0 21 20 11 26 -14 7 -28 14 -31 32 -13 9 9 15 9 25
-1 21 -21 13 -102 -19 -186 -26 -68 -31 -91 -28 -152 1 -40 5 -76 7 -80 8 -12
-15 -113 -24 -113 -5 0 -9 -9 -9 -20 0 -11 4 -20 9 -20 5 0 12 -24 15 -52 4
-29 19 -102 33 -163 25 -104 25 -116 15 -216 -10 -94 -9 -113 8 -180 11 -41
20 -95 20 -120 0 -26 3 -61 6 -78 6 -26 10 -31 28 -26 62 18 74 27 79 62 3 19
2 42 -3 51 -5 10 -21 58 -36 107 -20 69 -28 125 -34 240 -4 83 -14 173 -22
200 -17 57 -23 108 -20 180 1 28 4 113 5 190 2 107 6 147 19 170 28 51 111
118 191 153 l47 21 1 -27 c0 -25 2 -24 21 15 12 23 29 44 40 46 34 9 30 -14
-9 -50 -22 -21 -30 -33 -18 -28 11 4 30 8 43 9 14 1 29 11 37 25 7 15 24 26
40 28 23 3 26 1 20 -17 -9 -27 20 -38 44 -16 18 16 51 13 51 -5 0 -15 37 -10
58 9 28 23 42 112 18 112 -10 0 -13 6 -10 15 4 10 0 15 -12 16 -13 0 -14 2 -5
6 17 7 -79 65 -97 58 -14 -5 -62 14 -62 25 0 6 44 30 56 30 2 0 9 -12 14 -26
10 -24 12 -25 33 -12 12 8 34 18 50 22 25 6 39 26 17 26 -6 0 -9 21 -8 47 1
27 -3 48 -10 51 -6 2 -8 10 -5 18 3 9 -1 14 -11 14 -9 0 -16 6 -14 14 2 8 -1
15 -7 16 -10 1 -25 30 -31 58 -6 32 -14 41 -41 44 -15 2 -32 -3 -38 -9 -7 -9
-14 -10 -25 -2 -12 9 -11 10 5 4 18 -6 18 -5 -2 15 -13 11 -36 23 -53 26 -16
4 -30 11 -30 15 0 5 -12 14 -26 19 -14 6 -22 15 -18 21 11 18 71 39 113 39 50
0 124 -28 118 -45 -5 -11 31 -41 46 -37 4 1 7 -2 7 -7 0 -5 -9 -11 -21 -14
-20 -5 -20 -7 -4 -31 13 -20 23 -24 42 -20 17 5 30 1 42 -13 13 -14 30 -19 57
-18 61 3 66 4 59 15 -3 6 3 10 15 10 19 0 21 4 15 31 -7 29 -5 31 14 26 28 -7
42 21 18 35 -10 5 -17 16 -17 25 0 10 -6 13 -16 9 -8 -3 -13 -2 -10 3 3 5 -1
12 -10 15 -9 3 -14 12 -12 18 3 7 -3 21 -13 31 -26 28 -11 73 24 69 28 -3 44
12 26 24 -8 5 -5 12 10 23 18 14 19 19 8 41 -8 14 -12 31 -9 39 3 10 0 11 -18
1 -20 -11 -22 -10 -17 4 3 8 2 18 -2 21 -5 2 -12 -5 -16 -18 l-7 -22 -7 25
c-4 14 -3 28 1 31 15 10 -50 72 -71 66 -19 -5 -41 21 -41 50 0 15 -2 16 -10 3
-8 -12 -10 -12 -10 -1 0 8 -3 12 -6 8 -3 -3 -17 7 -30 23 -26 30 -58 31 -69 2
-5 -14 -8 -14 -15 -2 -6 10 -12 11 -22 2 -8 -6 -30 -13 -49 -15 -20 -2 -42 -7
-50 -11 -8 -4 -6 -1 4 7 15 12 16 20 8 35 -6 10 -8 32 -5 47 4 21 1 26 -9 22
-18 -7 -37 11 -30 29 2 7 0 21 -5 31 -8 13 -7 22 5 35 16 18 10 74 -7 63 -5
-3 -18 4 -29 16 -12 13 -26 19 -36 15 -9 -3 -14 -2 -11 3 3 5 -4 11 -16 14
-13 4 -26 1 -30 -6 -5 -9 -10 -8 -20 4 -12 14 -16 14 -48 -2z m-213 -462 c12
-7 22 -15 23 -19 0 -4 7 -23 15 -42 23 -55 20 -66 -20 -66 -24 0 -41 -7 -53
-21 -32 -39 -43 -49 -57 -49 -7 0 -13 6 -12 13 1 42 -5 59 -23 64 -22 6 -27
28 -8 39 9 6 5 10 -12 15 -24 7 -24 7 -2 8 21 1 33 21 12 21 -5 0 -10 7 -10
15 0 8 9 15 20 15 11 0 20 -4 20 -10 0 -19 49 -10 60 10 12 23 17 24 47 7z
m88 -14 c5 -10 7 -26 6 -35 -2 -20 20 -24 47 -9 14 7 20 2 34 -30 l16 -38 -35
-31 c-24 -21 -39 -28 -45 -22 -9 9 -48 151 -48 175 0 14 18 7 25 -10z m350 6
c11 -16 1 -19 -13 -3 -7 8 -8 14 -3 14 5 0 13 -5 16 -11z m-32 -15 c4 -4 -19
-20 -50 -35 -31 -16 -61 -35 -65 -44 -9 -16 -43 -21 -52 -7 -11 18 55 65 99
70 25 2 45 9 45 13 0 10 14 12 23 3z m100 -34 c9 -11 26 -20 37 -20 27 0 25
-17 -2 -31 -13 -6 -47 -29 -76 -51 -29 -22 -68 -42 -86 -45 -25 -4 -32 -9 -29
-22 2 -10 -8 -29 -23 -44 -24 -25 -28 -26 -39 -10 -11 15 -13 15 -20 -7 l-7
-23 -13 23 c-11 21 -13 22 -22 5 -7 -12 -13 -14 -17 -6 -9 13 -46 15 -46 2 0
-6 5 -13 10 -16 6 -3 10 -12 10 -18 0 -7 -5 -4 -11 6 -7 12 -17 16 -30 12 -10
-4 -19 -4 -19 -1 0 11 69 76 80 76 7 0 42 29 79 64 71 69 108 90 146 80 20 -5
27 -1 36 20 15 31 19 32 42 6z m-286 -34 c-11 -27 -27 -17 -27 16 0 30 1 31
16 16 9 -9 14 -24 11 -32z m370 24 c1 -11 -2 -20 -7 -20 -10 0 -20 26 -13 34
12 11 19 6 20 -14z m35 -76 c5 -3 4 -12 -2 -19 -7 -9 -6 -16 5 -25 16 -14 10
-34 -7 -24 -7 4 -8 2 -4 -4 15 -25 -6 -29 -66 -12 -78 21 -84 39 -27 73 38 23
75 27 101 11z m-404 -37 c-44 -39 -98 -71 -98 -59 0 19 90 92 112 92 21 -1 20
-3 -14 -33z m580 -52 c-3 -3 -9 2 -12 12 -6 14 -5 15 5 6 7 -7 10 -15 7 -18z
m-348 5 c-20 -13 -33 -13 -25 0 3 6 14 10 23 10 15 0 15 -2 2 -10z m-260 -114
c0 -2 -7 -6 -15 -10 -8 -3 -15 -1 -15 4 0 6 7 10 15 10 8 0 15 -2 15 -4z
m-125 -49 c1 -15 -16 -27 -27 -21 -14 9 -9 24 8 24 9 0 12 5 8 13 -4 7 -3 9 2
4 5 -5 9 -14 9 -20z m126 -20 c28 -7 23 -25 -13 -47 -38 -23 -68 -12 -68 25 0
28 52 65 58 40 2 -7 12 -15 23 -18z m-131 -33 c0 -14 -3 -14 -15 -4 -8 7 -15
14 -15 16 0 2 7 4 15 4 8 0 15 -7 15 -16z m-115 -23 c3 -11 14 -21 23 -23 11
-3 7 -6 -11 -10 -23 -4 -27 -3 -22 13 5 14 1 19 -14 19 -12 0 -21 5 -21 10 0
18 39 10 45 -9z m54 -77 c5 3 14 -1 21 -9 15 -18 -2 -45 -29 -45 -14 0 -14 2
-1 10 11 8 8 9 -12 4 -25 -6 -27 -4 -25 24 2 25 5 29 20 21 9 -6 21 -8 26 -5z
m121 6 c0 -5 -5 -10 -11 -10 -5 0 -7 5 -4 10 3 6 8 10 11 10 2 0 4 -4 4 -10z
m44 -55 c-4 -8 -1 -15 5 -15 6 0 11 5 11 10 0 6 8 5 20 -2 22 -14 27 -32 8
-26 -14 5 -68 -57 -68 -78 0 -8 -6 -14 -14 -14 -10 0 -14 15 -15 56 0 43 3 55
13 51 8 -3 16 2 19 14 3 10 10 19 16 19 6 0 8 -7 5 -15z m-114 -21 c0 -28 -53
-64 -65 -43 -4 5 -3 9 2 8 25 -4 35 3 30 21 -4 17 4 27 26 29 4 1 7 -6 7 -15z
m465 -16 c5 -4 0 -6 -13 -5 -22 1 -27 8 -15 20 3 4 9 4 12 0 3 -4 10 -11 16
-15z m-475 -58 c0 -5 -4 -10 -10 -10 -5 0 -10 5 -10 10 0 6 5 10 10 10 6 0 10
-4 10 -10z m-226 -41 c-8 -14 -24 -10 -24 6 0 9 6 12 15 9 8 -4 12 -10 9 -15z
m376 -18 c0 -5 -7 -12 -16 -15 -14 -5 -15 -4 -4 9 14 17 20 19 20 6z m-48 -36
c3 -14 2 -28 -3 -31 -10 -6 -28 27 -22 44 8 20 20 14 25 -13z m-105 0 c0 -8
-4 -12 -9 -9 -4 3 -8 9 -8 15 0 5 4 9 8 9 5 0 9 -7 9 -15z m285 -58 c-17 -39
-69 -85 -157 -139 -6 -4 -10 12 -10 40 0 26 -4 59 -8 73 -7 22 -3 30 28 54 37
28 37 28 30 4 -7 -22 -7 -23 10 -9 11 8 16 10 12 4 -4 -7 1 -15 10 -18 15 -6
15 -8 3 -16 -8 -5 -12 -11 -9 -14 3 -3 27 16 55 42 54 52 65 46 36 -21z m-138
48 c-4 -8 -10 -12 -15 -9 -11 6 -2 24 11 24 5 0 7 -7 4 -15z m403 -101 c-3 -4
-14 -3 -24 0 -15 6 -15 8 -3 16 16 10 39 -4 27 -16z"/>
<path d="M1305 3730 c-3 -6 -4 -19 0 -29 5 -18 193 -197 199 -190 2 2 8 13 14
24 9 19 3 24 -72 63 -81 41 -136 85 -123 98 4 4 37 2 74 -5 38 -6 84 -14 103
-16 19 -3 45 -7 57 -10 15 -4 25 1 33 15 6 11 9 20 7 20 -2 0 -53 9 -113 20
-122 22 -170 25 -179 10z"/>
<path d="M3415 3638 c-123 -55 -134 -63 -117 -80 9 -9 38 -1 124 37 62 27 117
51 121 55 8 7 -1 41 -12 39 -3 -1 -55 -23 -116 -51z"/>
<path d="M3450 3529 c-79 -24 -118 -81 -97 -142 15 -43 53 -67 109 -67 129 0
202 100 131 180 -32 35 -85 46 -143 29z m148 -51 c18 -15 15 -53 -7 -72 -30
-27 -90 -45 -151 -46 -60 0 -80 11 -80 45 0 65 180 119 238 73z"/>
<path d="M1226 3513 c-9 -30 -36 -154 -36 -164 0 -5 9 -9 19 -9 17 0 18 3 8
35 -6 19 -8 37 -6 39 2 3 61 -8 129 -23 107 -24 126 -26 134 -13 13 21 0 27
-119 52 -144 30 -143 29 -110 68 25 30 25 32 7 32 -12 0 -23 -8 -26 -17z"/>
<path d="M3150 3086 c0 -2 8 -10 18 -17 15 -13 16 -12 3 4 -13 16 -21 21 -21
13z"/>
<path d="M3525 3070 c-3 -5 -2 -10 4 -10 5 0 13 5 16 10 3 6 2 10 -4 10 -5 0
-13 -4 -16 -10z"/>
<path d="M1028 2715 c2 -42 -1 -71 -8 -80 -11 -13 -4 -15 44 -15 46 0 56 3 56
17 0 13 -3 14 -12 5 -7 -7 -22 -12 -35 -12 -22 0 -23 4 -23 71 l0 71 30 -4
c17 -3 30 -1 30 4 0 4 -19 8 -42 8 l-43 0 3 -65z"/>
<path d="M1163 2773 c-26 -10 -14 -52 22 -75 34 -22 50 -68 23 -68 -6 0 -9 -2
-6 -5 3 -3 13 -3 22 1 29 11 19 50 -24 84 -24 19 -37 36 -33 45 6 18 49 20 56
3 3 -8 6 -6 6 5 1 12 -6 17 -26 16 -16 0 -34 -3 -40 -6z"/>
<path d="M1260 2771 c0 -4 12 -6 26 -3 l26 5 -4 -77 c-3 -75 -3 -76 22 -76 19
0 21 3 12 12 -7 7 -12 39 -12 75 0 54 3 63 18 63 10 0 23 -5 30 -12 9 -9 12
-8 12 5 0 14 -10 17 -65 17 -36 0 -65 -4 -65 -9z"/>
<path d="M3400 2755 l-25 -14 23 -1 c23 0 24 -3 20 -60 -2 -48 0 -60 12 -60
12 0 14 13 12 75 -2 41 -7 75 -10 75 -4 -1 -18 -7 -32 -15z"/>
<path d="M3512 2758 c-28 -28 -7 -79 33 -77 19 0 19 1 -2 9 -28 11 -32 57 -7
67 37 14 60 -72 31 -112 -10 -12 -22 -16 -40 -13 -15 3 -24 1 -21 -3 3 -5 18
-9 34 -9 50 0 78 80 44 128 -17 24 -53 29 -72 10z"/>
<path d="M3637 2752 c-10 -10 -17 -24 -17 -30 0 -18 30 -42 53 -41 l22 0 -21
9 c-29 11 -37 26 -29 51 5 14 14 19 28 17 19 -3 22 -11 25 -51 4 -56 -11 -81
-45 -74 -12 2 -20 0 -17 -4 9 -16 50 -10 67 9 22 24 22 95 1 116 -21 21 -47
20 -67 -2z"/>
<path d="M3760 2755 c-14 -17 0 -21 17 -4 15 15 43 4 43 -16 0 -8 -12 -21 -26
-28 l-27 -12 24 -5 c17 -4 24 -13 24 -30 0 -21 -5 -25 -32 -25 -17 0 -29 -3
-26 -7 7 -12 58 -9 71 4 17 17 15 38 -5 60 -9 10 -11 18 -6 18 17 0 25 31 12
46 -15 18 -53 18 -69 -1z"/>
<path d="M1070 2700 c0 -5 5 -10 10 -10 6 0 10 5 10 10 0 6 -4 10 -10 10 -5 0
-10 -4 -10 -10z"/>
<path d="M1150 2648 c0 -9 5 -20 11 -23 17 -11 18 -2 3 19 -12 17 -14 17 -14
4z"/>
<path d="M1400 2630 c0 -5 5 -10 10 -10 6 0 10 5 10 10 0 6 -4 10 -10 10 -5 0
-10 -4 -10 -10z"/>
<path d="M1931 2516 c-15 -18 -10 -29 12 -24 9 2 12 9 8 21 -6 17 -8 18 -20 3z"/>
<path d="M1280 1888 c0 -194 -3 -363 -6 -375 -6 -22 -3 -23 45 -23 l51 0 0 98
c0 55 3 147 7 206 l6 107 22 -68 c18 -57 91 -250 125 -330 8 -19 17 -23 58
-23 l49 0 7 213 c3 116 7 284 8 372 l2 160 -41 3 -40 3 -8 -178 c-4 -98 -10
-205 -14 -238 l-6 -60 -36 95 c-20 52 -58 161 -84 243 l-48 147 -48 0 -49 0 0
-352z"/>
<path d="M3104 2229 c-34 -10 -79 -50 -99 -89 -9 -18 -14 -102 -16 -312 -4
-278 -3 -287 17 -315 74 -101 207 -97 268 7 20 33 21 54 24 317 3 278 3 284
-19 323 -15 26 -37 47 -64 60 -45 22 -63 23 -111 9z m84 -75 c21 -14 22 -22
22 -150 l0 -134 -50 0 -50 0 0 -34 c0 -34 1 -35 48 -38 l47 -3 0 -123 c0 -118
-1 -125 -24 -143 -13 -10 -36 -19 -53 -19 -54 0 -59 31 -51 337 l6 268 28 27
c31 32 46 34 77 12z"/>
<path d="M927 2133 c-4 -54 -7 -155 -7 -225 l0 -128 45 0 45 0 0 215 c0 118 1
218 3 223 1 4 -16 8 -39 10 l-41 3 -6 -98z"/>
<path d="M1915 2220 c-1 -3 -6 -173 -10 -377 l-7 -373 51 0 51 0 0 203 c1 193
2 201 17 172 31 -56 143 -307 154 -346 l12 -39 54 0 c29 0 53 4 53 10 0 22
-52 143 -117 276 l-70 142 52 93 c28 52 70 127 93 167 l41 72 -57 0 c-57 0
-58 0 -71 -36 -17 -48 -146 -274 -156 -274 -1 0 -1 70 -1 156 l1 157 -43 1
c-24 0 -45 -1 -47 -4z"/>
<path d="M2585 2040 l-7 -170 -49 0 -49 0 0 -41 0 -42 50 7 51 7 -1 -173 -2
-173 44 0 43 0 3 167 2 167 53 3 52 3 3 38 3 37 -55 0 -56 0 7 170 6 170 -45
0 -46 0 -7 -170z"/>
<path d="M3566 2178 c-3 -18 -8 -189 -11 -380 l-7 -348 41 0 c22 0 42 4 45 9
3 5 7 125 8 266 l2 258 27 -59 c35 -74 145 -368 161 -428 12 -46 13 -46 55
-46 l43 0 0 168 c0 93 3 264 7 380 l6 212 -46 0 c-26 0 -47 -1 -47 -2 0 -2 -3
-57 -5 -123 -3 -66 -8 -166 -11 -222 l-6 -103 -43 123 c-24 67 -60 168 -81
225 l-37 102 -48 0 c-47 0 -48 -1 -53 -32z"/>
<path d="M910 1610 l0 -120 44 0 45 0 3 120 3 120 -47 0 -48 0 0 -120z"/>
</g>
</svg>
